<svg width="339" height="246" viewBox="0 0 339 246" fill="none" xmlns="http://www.w3.org/2000/svg">
<path d="M29.56 67.6C37.4533 65.296 43.7467 61.7547 48.44 56.976C53.176 52.1973 56.3333 46.7573 57.912 40.656C55.224 40.912 52.3867 41.2107 49.4 41.552C46.4133 41.8507 43.4907 42.1707 40.632 42.512C37.816 42.8107 35.256 43.1307 32.952 43.472L26.552 40.272L26.36 28.752C28.1947 28.6667 30.4133 28.5387 33.016 28.368C35.6187 28.1547 38.392 27.9413 41.336 27.728C44.28 27.472 47.2027 27.216 50.104 26.96C53.048 26.6613 55.8213 26.384 58.424 26.128C61.0267 25.8293 63.2667 25.552 65.144 25.296L71.544 28.496L76.856 32.528C75.3627 44.4747 72.0347 54.3733 66.872 62.224C61.7093 70.032 54.2213 75.8987 44.408 79.824L38.008 76.624L29.56 67.6ZM64.952 26C63.1173 26.256 60.92 26.512 58.36 26.768C55.8 27.024 53.0693 27.3013 50.168 27.6C47.2667 27.856 44.3653 28.112 41.464 28.368C38.6053 28.5813 35.9173 28.7947 33.4 29.008C30.8827 29.1787 28.7493 29.3067 27 29.392L27.128 39.568C29.304 39.2267 31.8213 38.9067 34.68 38.608C37.5387 38.2667 40.4827 37.9467 43.512 37.648C46.5413 37.3067 49.4427 37.008 52.216 36.752C55.032 36.496 57.464 36.2827 59.512 36.112C58.8293 40.9333 57.2933 45.456 54.904 49.68C52.5573 53.904 49.3573 57.5947 45.304 60.752C41.2933 63.9093 36.4293 66.32 30.712 67.984L38.136 75.856C47.6507 72.0587 54.9253 66.32 59.96 58.64C65.0373 50.96 68.3013 41.296 69.752 29.648L64.952 26ZM94.072 67.152C98.9787 66.64 103.139 65.5947 106.552 64.016C109.965 62.4373 112.76 60.5813 114.936 58.448C117.155 56.3147 118.861 54.1813 120.056 52.048C117.411 52.304 114.616 52.5813 111.672 52.88C108.728 53.1787 105.869 53.4773 103.096 53.776C100.323 54.0747 97.8267 54.352 95.608 54.608L89.208 51.408V40.592C90.4453 40.5067 91.896 40.4213 93.56 40.336C95.2667 40.208 97.1013 40.0587 99.064 39.888L93.816 37.264V26.64C95.5653 26.5547 97.656 26.4267 100.088 26.256C102.563 26.0853 105.187 25.8933 107.96 25.68C110.733 25.4667 113.464 25.232 116.152 24.976C118.883 24.6773 121.4 24.4213 123.704 24.208C126.008 23.952 127.885 23.7387 129.336 23.568L135.736 26.768V37.392L130.872 37.648L135.8 40.144L141.304 44.24C139.597 51.024 137.357 56.8267 134.584 61.648C131.811 66.4267 128.227 70.3733 123.832 73.488C119.48 76.6027 114.04 79.0347 107.512 80.784L101.112 77.584L94.072 67.152ZM128.696 24.272C127.373 24.4427 125.603 24.656 123.384 24.912C121.208 25.1253 118.776 25.36 116.088 25.616C113.443 25.872 110.776 26.1067 108.088 26.32C105.4 26.5333 102.861 26.7253 100.472 26.896C98.0827 27.0667 96.0773 27.1947 94.456 27.28V36.56C96.0347 36.3467 97.9973 36.1333 100.344 35.92C102.733 35.664 105.272 35.4293 107.96 35.216C110.691 34.96 113.379 34.7253 116.024 34.512C118.669 34.256 121.101 34.0427 123.32 33.872C125.539 33.7013 127.331 33.5947 128.696 33.552V24.272ZM129.208 37.648C127.928 37.8613 126.051 38.096 123.576 38.352C121.101 38.608 118.307 38.8853 115.192 39.184C112.12 39.44 108.984 39.7173 105.784 40.016C102.584 40.272 99.576 40.5067 96.76 40.72C93.9867 40.8907 91.6827 41.04 89.848 41.168V50.704C92.0667 50.448 94.648 50.1707 97.592 49.872C100.579 49.5307 103.629 49.2107 106.744 48.912C109.901 48.5707 112.867 48.272 115.64 48.016C118.456 47.7173 120.824 47.4827 122.744 47.312C122.232 49.1467 121.336 51.152 120.056 53.328C118.776 55.4613 117.048 57.5307 114.872 59.536C112.739 61.5413 110.029 63.2907 106.744 64.784C103.501 66.2773 99.64 67.2587 95.16 67.728L101.368 76.816C107.64 75.152 112.888 72.8053 117.112 69.776C121.379 66.704 124.877 62.8213 127.608 58.128C130.339 53.4347 132.515 47.824 134.136 41.296L129.208 37.648ZM160.056 70.288C165.901 68.4107 170.509 66.0853 173.88 63.312C177.293 60.5387 179.896 57.2533 181.688 53.456L177.656 54.992L175.096 53.712L166.84 57.872L160.44 54.672C159.885 52.0267 159.181 49.36 158.328 46.672C157.475 43.9413 156.493 41.4027 155.384 39.056L163.64 35.6L168.312 37.968L167.672 36.112L176.376 33.424L182.776 36.624C183.117 37.5627 183.459 38.608 183.8 39.76C184.141 40.8693 184.461 42.0427 184.76 43.28C185.101 41.6587 185.357 39.9947 185.528 38.288C185.699 36.5387 185.848 34.7253 185.976 32.848L195.128 33.488L201.528 36.688C201.101 42.0213 200.312 46.9493 199.16 51.472C198.051 55.952 196.429 60.048 194.296 63.76C192.163 67.472 189.389 70.8 185.976 73.744C182.563 76.6453 178.317 79.2053 173.24 81.424L166.84 78.224L160.056 70.288ZM167.032 77.392C171.896 75.2587 175.992 72.784 179.32 69.968C182.648 67.1093 185.336 63.888 187.384 60.304C189.475 56.6773 191.053 52.688 192.12 48.336C193.229 43.984 193.997 39.248 194.424 34.128L186.552 33.552C186.253 38.2027 185.677 42.448 184.824 46.288C184.013 50.128 182.691 53.584 180.856 56.656C179.064 59.728 176.568 62.4373 173.368 64.784C170.211 67.088 166.157 69.0507 161.208 70.672L167.032 77.392ZM179.512 48.08C179.043 45.6907 178.488 43.216 177.848 40.656C177.251 38.096 176.632 35.9627 175.992 34.256L168.504 36.56C168.973 37.7973 169.421 39.248 169.848 40.912C170.275 42.5333 170.659 44.2187 171 45.968C171.341 47.7173 171.597 49.3813 171.768 50.96L179.512 48.08ZM168.248 50C167.693 47.696 166.968 45.328 166.072 42.896C165.176 40.464 164.259 38.3093 163.32 36.432L156.216 39.44C157.197 41.4453 158.115 43.7707 158.968 46.416C159.821 49.0187 160.461 51.4507 160.888 53.712L168.248 50ZM243.64 44.048C241.208 42.8533 238.925 41.7653 236.792 40.784C234.659 39.76 232.845 38.928 231.352 38.288C229.901 37.648 228.877 37.2853 228.28 37.2L221.88 34L227.512 24.336C230.541 25.2747 233.827 26.5333 237.368 28.112C240.952 29.6907 244.941 31.8027 249.336 34.448L243.64 44.048ZM242.04 31.44C240.973 30.7147 239.565 29.9467 237.816 29.136C236.109 28.3253 234.36 27.5573 232.568 26.832C230.776 26.1067 229.176 25.552 227.768 25.168L222.84 33.616C224.205 33.9573 225.763 34.4907 227.512 35.216C229.304 35.9413 231.053 36.7307 232.76 37.584C234.509 38.3947 235.917 39.184 236.984 39.952L242.04 31.44ZM217.72 65.232C228.088 63.9947 236.621 60.5173 243.32 54.8C250.061 49.04 255.075 41.5307 258.36 32.272L264.76 35.472L271.672 45.136C269.624 49.232 267.405 53.0293 265.016 56.528C262.627 60.0267 259.811 63.2267 256.568 66.128C253.325 69.0293 249.464 71.632 244.984 73.936C240.547 76.24 235.256 78.2667 229.112 80.016L222.712 76.816L217.72 65.232ZM258.488 33.616C256.44 39.4613 253.56 44.6667 249.848 49.232C246.179 53.7547 241.741 57.4453 236.536 60.304C231.331 63.12 225.357 64.9547 218.616 65.808L223.032 75.984C229.005 74.32 234.168 72.3573 238.52 70.096C242.872 67.8347 246.627 65.296 249.784 62.48C252.941 59.6213 255.693 56.5067 258.04 53.136C260.387 49.7227 262.541 46.032 264.504 42.064L258.488 33.616ZM238.328 57.36C236.579 56.464 234.68 55.5253 232.632 54.544C230.584 53.52 228.685 52.6027 226.936 51.792C225.187 50.9387 223.821 50.384 222.84 50.128L216.44 46.928L222.072 37.2C224.76 38.0533 227.875 39.2267 231.416 40.72C234.957 42.1707 239.117 44.368 243.896 47.312L238.328 57.36ZM236.6 44.304C235.448 43.5787 233.997 42.8107 232.248 42C230.499 41.1467 228.728 40.3787 226.936 39.696C225.187 38.9707 223.651 38.416 222.328 38.032L217.4 46.544C218.808 46.928 220.408 47.504 222.2 48.272C223.992 49.04 225.72 49.872 227.384 50.768C229.091 51.6213 230.52 52.4533 231.672 53.264L236.6 44.304ZM330.168 74.064C328.803 74.1493 327.053 74.2773 324.92 74.448C322.829 74.6187 320.483 74.8107 317.88 75.024C315.32 75.2373 312.696 75.4507 310.008 75.664C307.32 75.92 304.696 76.1547 302.136 76.368C299.576 76.5813 297.251 76.7947 295.16 77.008C293.069 77.2213 291.363 77.392 290.04 77.52L283.64 74.32V64.912C284.963 64.8693 286.733 64.784 288.952 64.656C291.213 64.528 293.709 64.3573 296.44 64.144C299.213 63.888 302.029 63.632 304.888 63.376L306.36 48.848C304.568 49.0187 302.755 49.2107 300.92 49.424C299.085 49.6373 297.272 49.872 295.48 50.128L289.208 46.928L289.016 37.456C290.552 37.4133 292.451 37.3067 294.712 37.136C296.973 36.9653 299.405 36.7733 302.008 36.56C304.653 36.304 307.235 36.048 309.752 35.792C312.269 35.536 314.552 35.3013 316.6 35.088L323 38.288L320.76 61.776L323.768 61.456L330.168 64.656V74.064ZM313.272 63.248L315.832 35.856C313.997 36.0267 311.864 36.24 309.432 36.496C307.043 36.7093 304.568 36.944 302.008 37.2C299.491 37.4133 297.144 37.6053 294.968 37.776C292.792 37.9467 291.021 38.0533 289.656 38.096L289.784 46.224C292.6 45.7547 295.565 45.392 298.68 45.136C301.795 44.8373 304.717 44.56 307.448 44.304L305.464 63.952C302.52 64.208 299.64 64.464 296.824 64.72C294.008 64.9333 291.491 65.1253 289.272 65.296C287.096 65.424 285.432 65.5093 284.28 65.552V73.68C285.475 73.552 287.075 73.4027 289.08 73.232C291.085 73.0187 293.325 72.8053 295.8 72.592C298.317 72.336 300.899 72.1013 303.544 71.888C306.189 71.6747 308.771 71.4613 311.288 71.248C313.805 71.0347 316.088 70.8427 318.136 70.672C320.227 70.5013 321.891 70.3733 323.128 70.288V62.16L313.272 63.248Z" fill="#404040"/>
<path d="M198.2 219.624C191.971 219.197 186.296 218.045 181.176 216.168C176.056 214.291 171.405 212.029 167.224 209.384C163.981 213.224 159.843 216.339 154.808 218.728C149.773 221.203 144.141 223.208 137.912 224.744L125.24 218.344C124.216 220.989 123.107 223.592 121.912 226.152L109.112 219.752L90.808 207.592C93.1973 202.472 95.288 197.352 97.08 192.232C98.9573 187.027 100.536 182.291 101.816 178.024C103.096 173.757 104.035 170.344 104.632 167.784C105.315 165.224 105.656 163.944 105.656 163.944L113.208 167.528C109.197 164.371 105.528 161.768 102.2 159.72C98.872 157.672 96.2267 156.179 94.264 155.24C92.3013 154.216 91.32 153.704 91.32 153.704L102.968 135.656C102.968 135.656 103.992 136.125 106.04 137.064C108.173 138.003 110.733 139.24 113.72 140.776C116.707 142.227 119.523 143.72 122.168 145.256V142.696L114.104 140.136C108.387 135.272 103.523 131.645 99.512 129.256C95.5013 126.867 93.496 125.672 93.496 125.672L105.144 108.008C105.144 108.008 105.741 108.307 106.936 108.904C108.131 109.416 109.581 110.099 111.288 110.952C112.995 111.805 114.659 112.659 116.28 113.512C117.901 114.365 119.181 115.091 120.12 115.688V112.744L131.256 111.72V105.704L151.224 104.04L157.624 107.368V103.4L177.592 101.736L187.704 106.856L190.648 106.6L203.448 113V131.048L200.12 131.304L201.784 132.2V162.408L199.864 162.536L201.4 163.432V178.792L203.064 179.688V196.456L199.992 196.84L204.984 199.272L198.2 219.624ZM190.52 194.152C186.339 194.152 182.371 193.853 178.616 193.256C174.947 192.573 171.875 191.677 169.4 190.568L188.984 188.904V174.696L163.896 176.872C163.896 176.445 163.896 175.805 163.896 174.952C163.981 174.099 164.024 173.501 164.024 173.16L187.32 171.112V158.44L164.28 160.488V156.904L187.704 154.856V127.208L176.312 128.232V124.648L189.368 123.496V108.008L176.312 109.16V103.144L158.904 104.552V110.568L149.944 111.464V105.448L132.536 106.856V112.872L121.4 113.896V120.04C116.792 116.712 112.995 114.195 110.008 112.488C107.021 110.696 105.528 109.8 105.528 109.8L95.288 125.16C95.288 125.16 97.08 126.227 100.664 128.36C104.248 130.493 108.643 133.779 113.848 138.216L121.4 125.672V129.384L132.536 128.36V131.944L123.448 132.84V160.488L146.872 158.44V162.024L124.216 163.944V176.616L146.744 174.696C146.744 175.037 146.701 175.635 146.616 176.488C146.616 177.341 146.573 177.981 146.488 178.408L122.808 180.456V194.664L141.496 193C136.547 196.243 129.123 198.675 119.224 200.296L125.752 216.808C132.067 215.272 137.827 213.181 143.032 210.536C148.237 207.891 152.376 204.264 155.448 199.656C158.947 203.923 163.213 206.909 168.248 208.616C173.368 210.323 178.787 211.389 184.504 211.816L190.52 194.152ZM149.944 126.952L158.904 126.056V129.64L149.944 130.536V126.952ZM123.064 149.224C119.565 146.493 116.28 144.275 113.208 142.568C110.221 140.776 107.832 139.453 106.04 138.6C104.248 137.747 103.352 137.32 103.352 137.32L93.112 153.192C93.112 153.192 95.032 154.173 98.872 156.136C102.712 158.099 107.363 161.299 112.824 165.736L123.064 149.224ZM163.768 140.648L171.96 140.008V144.872L163.768 145.512V140.648ZM139.192 142.824L147.384 142.056V146.92L139.192 147.688V142.824ZM108.472 217.832C110.52 213.48 112.355 208.915 113.976 204.136C115.683 199.272 117.133 194.707 118.328 190.44C119.523 186.088 120.461 182.589 121.144 179.944C121.827 177.213 122.168 175.848 122.168 175.848L106.424 166.12C106.424 166.12 106.125 167.315 105.528 169.704C104.931 172.093 104.035 175.293 102.84 179.304C101.645 183.229 100.152 187.624 98.36 192.488C96.6533 197.352 94.648 202.259 92.344 207.208L108.472 217.832ZM294.84 198.888C294.84 202.984 294.627 206.397 294.2 209.128C293.859 211.944 293.005 214.248 291.64 216.04C290.36 217.832 288.355 219.283 285.624 220.392C282.893 221.501 279.181 222.397 274.488 223.08C269.795 223.848 263.821 224.573 256.568 225.256L243.768 218.856L237.112 200.04L232.504 200.424L219.704 194.024V173.288L261.56 169.576V165.608L245.688 167.016L220.728 154.216V117.096L257.336 113.896V105.704L279.48 103.784L292.28 110.184V110.824L316.088 108.776L328.888 115.176V152.296L318.776 153.064L318.648 159.592C318.221 160.189 317.581 160.915 316.728 161.768C315.875 162.621 315.107 163.389 314.424 164.072C313.741 164.755 313.4 165.096 313.4 165.096L317.112 164.712L329.912 171.112V191.848L294.84 194.92V198.888ZM285.752 168.68C285.752 168.68 286.435 168.211 287.8 167.272C289.165 166.333 290.872 165.096 292.92 163.56C294.968 162.024 297.059 160.317 299.192 158.44C301.325 156.563 303.16 154.685 304.696 152.808V145.512L314.808 144.744V110.184L278.2 113.384V105.192L258.616 106.856V115.048L222.008 118.248V152.808L234.168 151.784V159.208L278.072 155.368C278.072 155.368 277.048 156.221 275 157.928C272.952 159.549 270.093 161.213 266.424 162.92L262.84 163.176V170.728L220.984 174.44V192.616L262.84 188.904V192.36C262.84 194.152 262.627 195.389 262.2 196.072C261.773 196.669 260.451 197.053 258.232 197.224L238.008 199.016L244.536 217.448C252.984 216.68 259.64 215.827 264.504 214.888C269.453 214.035 273.08 212.797 275.384 211.176C277.688 209.555 279.139 207.293 279.736 204.392C280.419 201.405 280.76 197.437 280.76 192.488V187.368L315.832 184.296V166.12L285.752 168.68ZM239.416 134.888L297.4 129.768V135.4L239.416 140.52V134.888Z" fill="#404040"/>
<g filter="url(#filter0_d_2_28)">
<path d="M28.8108 220C28.5413 219.759 28.44 219.436 28.2207 219.291C26.3786 218.069 25.4317 215.859 25.9659 213.5C26.3659 211.734 26.3263 209.87 26.521 208.054C26.8205 205.26 27.166 202.471 27.4669 199.677C27.6582 197.902 27.7849 196.12 27.9746 194.344C28.2773 191.51 28.6206 188.68 28.923 185.845C29.1126 184.068 29.2392 182.284 29.429 180.507C29.7314 177.675 30.0743 174.848 30.3766 172.016C30.4988 170.871 30.5591 169.719 30.6597 168.414C30.1704 168.414 29.7413 168.414 29.3121 168.414C21.2777 168.414 13.2433 168.422 5.20893 168.409C3.16924 168.405 1.46778 167.64 0.600862 165.72C-0.232905 163.873 -0.265032 161.977 0.924637 160.193C13.8322 140.842 26.7377 121.489 39.6392 102.134C40.0305 101.547 40.3604 100.919 40.7374 100.322C41.7708 98.6855 42.8447 97.0835 44.5323 96.0616C45.8303 96 47.2089 96 48.701 96C48.9569 96.1861 49.0604 96.4396 49.2478 96.5478C51.3573 97.7655 52.2723 100.026 51.8103 102.415C51.4878 104.083 51.4374 105.803 51.2339 107.495C50.9414 109.93 50.6117 112.359 50.3145 114.793C50.1222 116.368 49.9705 117.947 49.7816 119.521C49.4709 122.111 49.129 124.697 48.8298 127.288C48.5615 129.612 48.3571 131.943 48.0805 134.265C47.7908 136.697 47.4454 139.123 47.1343 141.553C47.0995 141.824 47.1296 142.104 47.1296 142.5C47.6159 142.5 48.0501 142.5 48.4844 142.5C58.2601 142.5 68.0368 142.581 77.8108 142.457C81.3407 142.412 84.3212 146.461 82.3943 149.929C81.2347 152.017 79.7633 153.932 78.4105 155.911C75.085 160.774 71.7574 165.636 68.4114 170.485C64.7989 175.721 61.1627 180.94 57.5403 186.169C53.1573 192.496 48.7804 198.826 44.3964 205.152C41.5109 209.316 38.6574 213.502 35.6965 217.612C35.0474 218.512 34.0033 219.129 33.2218 219.938C31.8431 220 30.3837 220 28.8108 220Z" fill="url(#paint0_linear_2_28)"/>
</g>
<defs>
<filter id="filter0_d_2_28" x="0" y="96" width="88" height="128" filterUnits="userSpaceOnUse" color-interpolation-filters="sRGB">
<feFlood flood-opacity="0" result="BackgroundImageFix"/>
<feColorMatrix in="SourceAlpha" type="matrix" values="0 0 0 0 0 0 0 0 0 0 0 0 0 0 0 0 0 0 127 0" result="hardAlpha"/>
<feOffset dx="5" dy="4"/>
<feComposite in2="hardAlpha" operator="out"/>
<feColorMatrix type="matrix" values="0 0 0 0 0.25098 0 0 0 0 0.25098 0 0 0 0 0.25098 0 0 0 1 0"/>
<feBlend mode="normal" in2="BackgroundImageFix" result="effect1_dropShadow_2_28"/>
<feBlend mode="normal" in="SourceGraphic" in2="effect1_dropShadow_2_28" result="shape"/>
</filter>
<linearGradient id="paint0_linear_2_28" x1="41.5" y1="96" x2="41.5" y2="220" gradientUnits="userSpaceOnUse">
<stop stop-color="#FFC107"/>
<stop offset="1" stop-color="white"/>
</linearGradient>
</defs>
</svg>
