<svg width="339" height="246" viewBox="0 0 339 246" fill="none" xmlns="http://www.w3.org/2000/svg">
<path d="M51 29.84C52.1093 29.9253 53.624 30.032 55.544 30.16C57.5067 30.2453 59.3413 30.352 61.048 30.48C63.3093 30.6507 65.208 31.2267 66.744 32.208C68.28 33.1467 69.4533 34.3627 70.264 35.856C70.9893 37.1787 71.3733 38.672 71.416 40.336C71.5013 41.9573 71.2027 43.6427 70.52 45.392C70.008 46.7147 69.2187 48.3147 68.152 50.192C67.0853 52.0267 65.9333 53.8827 64.696 55.76C63.4587 57.6373 62.3067 59.344 61.24 60.88C60.1733 62.416 59.3627 63.5467 58.808 64.272C58.6373 64.4427 58.296 64.8907 57.784 65.616C57.272 66.2987 57.1227 67.28 57.336 68.56C56.824 69.2853 56.2267 70.0533 55.544 70.864C54.8613 71.632 54.0507 72.336 53.112 72.976C52.5147 73.36 51.768 73.7867 50.872 74.256C49.976 74.7253 49.0373 75.0453 48.056 75.216C47.0747 75.3867 46.1147 75.2373 45.176 74.768C44.8773 74.5973 44.4507 74.256 43.896 73.744C43.384 73.232 42.9573 72.5493 42.616 71.696C42.3173 70.8 42.296 69.6907 42.552 68.368C42.6373 67.8987 43.0427 67.1307 43.768 66.064C44.536 64.9547 45.4107 63.76 46.392 62.48C47.3733 61.2 48.2907 60.048 49.144 59.024C49.9973 57.9573 50.5733 57.232 50.872 56.848C51.2133 56.464 51.704 55.888 52.344 55.12C53.0267 54.3093 53.7307 53.4347 54.456 52.496C55.1813 51.5147 55.8213 50.5547 56.376 49.616C56.9733 48.6773 57.3573 47.8667 57.528 47.184C57.6987 46.416 57.7627 45.7973 57.72 45.328C57.6773 44.8587 57.4853 44.432 57.144 44.048C56.8453 43.7067 56.12 43.28 54.968 42.768C53.816 42.256 52.4293 41.8507 50.808 41.552C50.4667 41.4667 49.848 41.4027 48.952 41.36C48.0987 41.2747 47.1387 41.168 46.072 41.04C45.0053 40.912 43.9387 40.784 42.872 40.656C41.848 40.4853 41.016 40.2933 40.376 40.08C39.48 39.7813 38.648 39.3973 37.88 38.928C37.112 38.4587 36.4293 37.8187 35.832 37.008C35.1493 36.1547 34.5947 35.0667 34.168 33.744C33.7413 32.4213 33.464 30.7787 33.336 28.816C33.592 28.944 34.2747 29.0507 35.384 29.136C36.536 29.2213 37.9013 29.3067 39.48 29.392C41.0587 29.4773 42.6373 29.5413 44.216 29.584C45.7947 29.6267 47.2027 29.6693 48.44 29.712C49.72 29.7547 50.5733 29.7973 51 29.84ZM99.192 30.352C98.5093 29.456 97.9973 28.5173 97.656 27.536C97.3147 26.5547 97.1013 25.36 97.016 23.952C97.4427 23.9947 98.2533 24.0373 99.448 24.08C100.643 24.1227 102.072 24.1653 103.736 24.208C105.443 24.2507 107.213 24.272 109.048 24.272C110.883 24.272 112.632 24.272 114.296 24.272C116.003 24.272 117.475 24.272 118.712 24.272C119.949 24.272 120.803 24.2507 121.272 24.208C122.893 24.08 124.024 23.9733 124.664 23.888C125.304 23.76 125.88 23.568 126.392 23.312C127.928 23.7813 129.037 24.4427 129.72 25.296C130.445 26.1493 130.829 27.0667 130.872 28.048C130.957 29.0293 130.829 29.9253 130.488 30.736C130.147 31.5467 129.699 32.144 129.144 32.528C128.547 32.912 127.736 33.2533 126.712 33.552C125.688 33.808 124.579 34.0213 123.384 34.192C122.232 34.3627 121.144 34.512 120.12 34.64C119.096 34.7253 118.264 34.768 117.624 34.768C117.112 34.768 116.28 34.7893 115.128 34.832C114.019 34.8747 112.717 34.8747 111.224 34.832C109.731 34.7467 108.216 34.5547 106.68 34.256C105.144 33.9573 103.715 33.5093 102.392 32.912C101.069 32.272 100.003 31.4187 99.192 30.352ZM131.192 45.2C131.619 45.9253 131.981 46.7573 132.28 47.696C132.621 48.592 132.792 49.7013 132.792 51.024C132.792 52.3467 132.536 54.0107 132.024 56.016C131.597 57.6373 130.829 59.344 129.72 61.136C128.653 62.928 127.437 64.6133 126.072 66.192C124.707 67.7707 123.384 69.0933 122.104 70.16C121.293 70.8427 120.675 71.504 120.248 72.144C119.864 72.784 119.821 73.4453 120.12 74.128C119.224 75.2373 118.157 76.1333 116.92 76.816C115.725 77.5413 114.381 78.1387 112.888 78.608C111.395 79.0347 109.944 79.0987 108.536 78.8C107.171 78.5013 106.232 77.9893 105.72 77.264C105.208 76.5387 104.824 75.664 104.568 74.64C104.312 73.6587 104.632 72.5707 105.528 71.376C106.125 70.5653 106.851 69.712 107.704 68.816C108.557 67.8773 109.197 67.1947 109.624 66.768C109.837 66.5547 110.243 66.128 110.84 65.488C111.48 64.848 112.184 64.1227 112.952 63.312C113.763 62.5013 114.509 61.712 115.192 60.944C115.917 60.176 116.472 59.5573 116.856 59.088C117.624 58.1067 118.136 57.104 118.392 56.08C118.648 55.0133 118.541 54.0107 118.072 53.072C117.773 52.432 117.027 51.9627 115.832 51.664C114.68 51.3227 113.336 51.088 111.8 50.96C110.307 50.7893 108.877 50.64 107.512 50.512C106.019 50.3413 104.483 50.128 102.904 49.872C101.325 49.5733 99.96 49.296 98.808 49.04C97.656 48.784 96.6533 48.3787 95.8 47.824C94.9893 47.2267 94.264 46.2667 93.624 44.944C92.984 43.6213 92.3867 41.744 91.832 39.312C92.6427 39.44 93.752 39.5467 95.16 39.632C96.568 39.6747 98.1253 39.7173 99.832 39.76C101.581 39.8027 103.309 39.824 105.016 39.824C106.765 39.824 108.365 39.824 109.816 39.824C111.267 39.7813 112.397 39.7387 113.208 39.696C116.621 39.6107 119.416 39.7387 121.592 40.08C123.768 40.4213 125.496 40.8907 126.776 41.488C128.056 42.0427 129.016 42.6613 129.656 43.344C130.339 44.0267 130.851 44.6453 131.192 45.2ZM195.96 45.264C196.003 45.8613 195.896 46.7147 195.64 47.824C195.427 48.9333 195.149 50.128 194.808 51.408C194.467 52.688 194.125 53.904 193.784 55.056C193.443 56.208 193.165 57.104 192.952 57.744C192.781 58.384 192.504 59.3013 192.12 60.496C191.736 61.6907 191.331 62.9493 190.904 64.272C190.477 65.552 190.093 66.7253 189.752 67.792C189.411 68.816 189.197 69.5413 189.112 69.968C188.941 70.7787 188.835 71.376 188.792 71.76C188.749 72.1013 188.92 72.5067 189.304 72.976C189.048 73.744 188.557 74.6187 187.832 75.6C187.107 76.5813 186.189 77.3707 185.08 77.968C183.971 78.608 182.669 78.7787 181.176 78.48C180.237 78.2667 179.64 77.8187 179.384 77.136C179.171 76.4533 179.021 75.728 178.936 74.96C178.893 74.6187 178.957 73.9787 179.128 73.04C179.299 72.1013 179.533 71.0133 179.832 69.776C180.131 68.496 180.451 67.216 180.792 65.936C181.133 64.6133 181.432 63.3973 181.688 62.288C181.987 61.1787 182.2 60.3467 182.328 59.792C182.456 59.2373 182.691 58.3413 183.032 57.104C183.416 55.8667 183.821 54.48 184.248 52.944C184.717 51.3653 185.165 49.808 185.592 48.272C186.061 46.6933 186.445 45.264 186.744 43.984C187.085 42.704 187.277 41.744 187.32 41.104C187.405 40.4213 187.427 39.888 187.384 39.504C187.341 39.12 187.235 38.7147 187.064 38.288C187.789 38.2027 188.643 38.416 189.624 38.928C190.605 39.3973 191.565 40.016 192.504 40.784C193.443 41.552 194.232 42.3413 194.872 43.152C195.555 43.9627 195.917 44.6667 195.96 45.264ZM183.736 46.224C183.565 47.4187 182.989 48.464 182.008 49.36C181.069 50.2133 179.491 50.576 177.272 50.448C176.76 50.4053 176.291 50.448 175.864 50.576C175.48 50.6613 175.117 50.9387 174.776 51.408C174.52 51.7493 174.328 52.2827 174.2 53.008C174.115 53.6907 174.008 54.4587 173.88 55.312C173.709 56.464 173.219 57.424 172.408 58.192C171.64 58.9173 170.829 59.3227 169.976 59.408C169.421 59.4507 168.675 59.408 167.736 59.28C166.797 59.1093 165.88 58.7893 164.984 58.32C164.088 57.808 163.427 57.0827 163 56.144C162.275 54.5227 162.168 52.9227 162.68 51.344C163.192 49.7653 164.216 48.592 165.752 47.824C166.221 47.6107 166.861 47.4613 167.672 47.376C168.483 47.248 169.101 47.248 169.528 47.376C169.997 47.504 170.275 47.5893 170.36 47.632C170.488 47.632 170.637 47.632 170.808 47.632C171.448 47.632 171.981 47.3333 172.408 46.736C172.835 46.096 173.091 45.392 173.176 44.624C173.261 43.856 173.411 43.152 173.624 42.512C173.837 41.872 174.221 41.2747 174.776 40.72C175.288 40.1653 176.013 39.8027 176.952 39.632C177.891 39.4187 178.744 39.3547 179.512 39.44C180.792 39.5253 181.752 39.9733 182.392 40.784C183.032 41.552 183.437 42.448 183.608 43.472C183.821 44.4533 183.864 45.3707 183.736 46.224ZM235.512 54.352C234.787 54.0107 233.955 53.456 233.016 52.688C232.12 51.8773 231.565 51.1093 231.352 50.384C231.181 49.616 231.075 48.8053 231.032 47.952C230.989 47.0987 231.309 46.096 231.992 44.944C232.461 44.1333 233.08 43.4507 233.848 42.896C234.616 42.3413 235.341 41.872 236.024 41.488C236.707 41.104 237.155 40.784 237.368 40.528C237.965 39.7173 238.008 38.928 237.496 38.16C237.027 37.4347 236.621 36.7093 236.28 35.984C235.981 35.216 235.875 34.32 235.96 33.296C236.088 31.8027 236.515 30.544 237.24 29.52C238.008 28.496 238.925 27.7067 239.992 27.152C241.059 26.5547 242.104 26.2347 243.128 26.192C244.877 26.064 246.349 26.32 247.544 26.96C248.739 27.5573 249.699 28.304 250.424 29.2C251.149 30.096 251.64 30.928 251.896 31.696C252.195 32.464 252.28 33.36 252.152 34.384C252.024 35.408 251.704 36.3893 251.192 37.328C250.723 38.2667 250.083 39.0347 249.272 39.632C248.845 39.9733 248.376 40.3573 247.864 40.784C247.352 41.2107 247.011 41.68 246.84 42.192C246.669 42.704 246.648 43.1307 246.776 43.472C246.947 43.8133 247.181 44.176 247.48 44.56C247.821 44.9013 248.12 45.4133 248.376 46.096C248.675 46.736 248.739 47.632 248.568 48.784C248.397 49.936 247.992 51.0667 247.352 52.176C246.755 53.2853 245.901 54.1173 244.792 54.672C243.981 55.0987 242.787 55.4187 241.208 55.632C239.629 55.8027 237.731 55.376 235.512 54.352ZM262.968 55.952C263.565 56.6347 263.971 57.488 264.184 58.512C264.44 59.536 264.12 60.7733 263.224 62.224C262.712 63.0347 262.179 63.6533 261.624 64.08C261.112 64.5067 260.685 64.8267 260.344 65.04C259.661 64.912 259.107 64.8907 258.68 64.976C258.253 65.0187 257.805 65.1467 257.336 65.36C257.165 65.4453 256.696 65.68 255.928 66.064C255.16 66.4053 254.243 66.832 253.176 67.344C252.109 67.8133 251.021 68.3253 249.912 68.88C248.845 69.392 247.907 69.84 247.096 70.224C246.285 70.608 245.773 70.864 245.56 70.992C245.261 71.12 244.579 71.44 243.512 71.952C242.488 72.4213 241.336 72.9547 240.056 73.552C238.776 74.1493 237.581 74.6827 236.472 75.152C235.405 75.6213 234.68 75.92 234.296 76.048C233.485 76.304 232.781 76.3893 232.184 76.304C231.587 76.2187 231.096 76.1547 230.712 76.112C230.371 76.0267 229.752 75.7067 228.856 75.152C227.96 74.64 227.32 73.9147 226.936 72.976C226.552 72.0373 226.339 70.992 226.296 69.84C226.296 68.688 226.723 67.28 227.576 65.616C228.173 65.6587 228.899 65.5733 229.752 65.36C230.648 65.1467 231.437 64.8907 232.12 64.592C232.461 64.464 233.101 64.1867 234.04 63.76C235.021 63.3333 236.109 62.864 237.304 62.352C238.499 61.84 239.629 61.3493 240.696 60.88C241.805 60.4107 242.637 60.0693 243.192 59.856C243.747 59.6427 244.621 59.3227 245.816 58.896C247.053 58.4267 248.376 57.9573 249.784 57.488C251.192 56.976 252.472 56.528 253.624 56.144C254.776 55.7173 255.565 55.44 255.992 55.312C258.083 54.5867 259.619 54.3307 260.6 54.544C261.581 54.7573 262.371 55.2267 262.968 55.952ZM305.912 43.408C308.131 43.7067 309.901 44.0053 311.224 44.304C312.547 44.6027 313.571 44.9013 314.296 45.2C315.064 45.456 315.683 45.7333 316.152 46.032C317.133 46.5867 317.88 47.3973 318.392 48.464C318.904 49.488 319.245 50.576 319.416 51.728C319.629 52.88 319.757 53.904 319.8 54.8C319.843 55.696 319.864 56.2933 319.864 56.592C319.864 56.976 319.843 57.616 319.8 58.512C319.8 59.3653 319.779 60.2613 319.736 61.2C319.693 62.096 319.629 62.8 319.544 63.312C319.501 63.8667 319.672 64.272 320.056 64.528C320.483 64.7413 320.995 64.8693 321.592 64.912C322.232 64.9547 322.829 64.976 323.384 64.976C323.896 65.5307 324.259 66.4053 324.472 67.6C324.728 68.752 324.685 69.9253 324.344 71.12C324.003 72.3147 323.149 73.296 321.784 74.064C321.272 74.3627 320.547 74.4693 319.608 74.384C318.669 74.3413 317.496 74.3627 316.088 74.448C315.533 74.4907 314.616 74.5333 313.336 74.576C312.099 74.6613 310.669 74.7253 309.048 74.768C307.469 74.8533 305.891 74.9173 304.312 74.96C302.776 75.0027 301.411 75.0027 300.216 74.96C299.064 74.96 298.296 74.9173 297.912 74.832C295.608 74.192 293.965 73.2747 292.984 72.08C292.003 70.8853 291.448 69.6267 291.32 68.304C291.235 66.9387 291.363 65.7227 291.704 64.656C292.515 64.8267 293.667 64.976 295.16 65.104C296.653 65.232 298.168 65.3387 299.704 65.424C301.283 65.4667 302.563 65.488 303.544 65.488C305.037 65.4453 306.147 65.1467 306.872 64.592C307.597 64.0373 308.131 63.376 308.472 62.608C309.197 61.0293 309.432 59.4293 309.176 57.808C309.048 57.04 308.899 56.4213 308.728 55.952C308.6 55.4827 308.152 55.0347 307.384 54.608C306.573 54.1813 305.443 53.7973 303.992 53.456C302.584 53.072 300.749 52.6027 298.488 52.048C296.995 51.664 295.864 50.896 295.096 49.744C294.328 48.5493 293.859 47.248 293.688 45.84C293.517 44.432 293.56 43.2587 293.816 42.32C295.053 42.5333 296.461 42.704 298.04 42.832C299.619 42.96 301.133 43.0667 302.584 43.152C304.035 43.1947 305.144 43.28 305.912 43.408Z" fill="#404040"/>
<path d="M210.872 190.952C208.653 193.939 206.733 196.797 205.112 199.528C203.576 202.173 202.253 204.52 201.144 206.568C200.12 208.616 199.48 209.896 199.224 210.408C191.971 209.384 185.229 207.976 179 206.184C172.856 204.307 166.883 201.704 161.08 198.376C148.877 204.605 136.419 208.616 123.704 210.408C120.461 204.264 117.005 198.675 113.336 193.64L109.752 209.384C97.6347 206.653 88.5893 204.819 82.616 203.88C85.3467 196.627 87.5653 189.843 89.272 183.528C90.9787 177.128 92.856 169.491 94.904 160.616L104.248 162.024C98.4453 159.123 91.6187 156.691 83.768 154.728L96.44 135.144C99.1707 135.827 101.645 136.637 103.864 137.576C106.083 138.429 109.24 139.752 113.336 141.544L119.736 144.36V134.248H128.568V131.56H118.584V127.208L112.696 138.6C103.139 134.419 93.368 131.432 83.384 129.64L95.032 109.16C98.1893 109.928 103.437 111.677 110.776 114.408C112.312 114.92 113.72 115.432 115 115.944C116.28 116.456 117.475 116.883 118.584 117.224V113.768H128.568V110.44H154.04V113.768H169.016V110.44H194.36V113.768H204.728V131.56H194.36V134.248H203.192V159.976H173.24V162.152H203.32V173.544H173.24V175.72H207.032V188.264H177.336C181.603 189.288 186.339 190.013 191.544 190.44C196.835 190.867 203.277 191.037 210.872 190.952ZM169.016 131.56H154.04V134.248H169.016V131.56ZM151.352 144.872H144.696V148.968H151.352V144.872ZM171.704 148.968H178.488V144.872H171.704V148.968ZM113.976 190.568C118.584 190.739 121.869 190.824 123.832 190.824C133.56 190.824 141.112 189.971 146.488 188.264H119.608V175.72H149.816V173.544H119.736V162.152H149.816V159.976H119.736V146.408L109.496 162.92L119.608 164.456L113.976 190.568ZM336.568 161.768V183.784H305.976C308.024 186.259 309.048 188.52 309.048 190.568C309.048 194.067 307.469 197.224 304.312 200.04C301.155 202.771 296.504 204.947 290.36 206.568C284.301 208.189 276.963 209 268.344 209C264.675 209 260.493 208.829 255.8 208.488C251.192 208.061 244.707 207.379 236.344 206.44C236.344 201.661 236.003 197.523 235.32 194.024C234.637 190.525 233.528 187.112 231.992 183.784H213.432V161.768H277.944C279.907 161.085 281.869 160.147 283.832 158.952H232.248V157.16H215.864V114.664H261.176V111.592H288.568V114.664H333.88V157.16H318.136L318.264 157.544L313.144 158.568L302.648 161.768H336.568ZM308.152 140.648V137.192H241.592V140.648H308.152ZM236.344 183.784C247.949 186.003 257.336 187.112 264.504 187.112C272.013 187.112 276.408 186.003 277.688 183.784H236.344Z" fill="#404040"/>
<path d="M41.1602 100.589C42.1738 98.9838 43.1703 97.5112 44.6848 96.5552C45.8766 96.5025 47.1401 96.5001 48.5117 96.5C48.5417 96.5327 48.5736 96.5711 48.6118 96.6182C48.6165 96.6239 48.6214 96.6301 48.6268 96.6367C48.6956 96.7224 48.8217 96.8792 48.9979 96.9809C50.906 98.0824 51.7447 100.121 51.3194 102.32C51.1086 103.41 51.0088 104.551 50.9116 105.661C50.8586 106.266 50.8064 106.862 50.7375 107.436C50.5808 108.74 50.4152 110.029 50.2493 111.32C50.1039 112.452 49.9582 113.586 49.8181 114.733C49.7216 115.524 49.6352 116.315 49.5497 117.103L49.5388 117.203C49.4568 117.959 49.3752 118.711 49.2851 119.462C49.1547 120.549 49.0182 121.64 48.8815 122.733C48.6939 124.232 48.506 125.733 48.3331 127.231C48.2068 128.325 48.0946 129.42 47.9828 130.512L47.9609 130.726C47.8416 131.89 47.7217 133.049 47.584 134.206C47.405 135.709 47.2053 137.204 47.0052 138.704C46.8815 139.63 46.7577 140.557 46.6384 141.489C46.6161 141.663 46.6157 141.831 46.619 141.99C46.6202 142.046 46.6218 142.101 46.6233 142.155C46.6265 142.263 46.6296 142.372 46.6296 142.5V143H47.1296H47.1325H47.1353H47.1382H47.141H47.1438H47.1467H47.1495H47.1524H47.1552H47.1581H47.1609H47.1637H47.1666H47.1694H47.1722H47.1751H47.1779H47.1807H47.1835H47.1864H47.1892H47.192H47.1948H47.1977H47.2005H47.2033H47.2061H47.2089H47.2118H47.2146H47.2174H47.2202H47.223H47.2258H47.2286H47.2314H47.2342H47.2371H47.2399H47.2427H47.2455H47.2483H47.2511H47.2539H47.2567H47.2595H47.2623H47.2651H47.2678H47.2706H47.2734H47.2762H47.279H47.2818H47.2846H47.2874H47.2902H47.2929H47.2957H47.2985H47.3013H47.3041H47.3069H47.3096H47.3124H47.3152H47.318H47.3207H47.3235H47.3263H47.3291H47.3318H47.3346H47.3374H47.3401H47.3429H47.3457H47.3484H47.3512H47.354H47.3567H47.3595H47.3622H47.365H47.3677H47.3705H47.3733H47.376H47.3788H47.3815H47.3843H47.387H47.3898H47.3925H47.3953H47.398H47.4008H47.4035H47.4062H47.409H47.4117H47.4145H47.4172H47.4199H47.4227H47.4254H47.4282H47.4309H47.4336H47.4364H47.4391H47.4418H47.4445H47.4473H47.45H47.4527H47.4555H47.4582H47.4609H47.4636H47.4664H47.4691H47.4718H47.4745H47.4772H47.48H47.4827H47.4854H47.4881H47.4908H47.4935H47.4962H47.499H47.5017H47.5044H47.5071H47.5098H47.5125H47.5152H47.5179H47.5206H47.5233H47.526H47.5287H47.5314H47.5341H47.5368H47.5395H47.5422H47.5449H47.5476H47.5503H47.553H47.5557H47.5584H47.5611H47.5638H47.5665H47.5692H47.5719H47.5745H47.5772H47.5799H47.5826H47.5853H47.588H47.5907H47.5933H47.596H47.5987H47.6014H47.6041H47.6067H47.6094H47.6121H47.6148H47.6174H47.6201H47.6228H47.6255H47.6281H47.6308H47.6335H47.6361H47.6388H47.6415H47.6442H47.6468H47.6495H47.6522H47.6548H47.6575H47.6601H47.6628H47.6655H47.6681H47.6708H47.6734H47.6761H47.6788H47.6814H47.6841H47.6867H47.6894H47.692H47.6947H47.6973H47.7H47.7027H47.7053H47.708H47.7106H47.7133H47.7159H47.7185H47.7212H47.7238H47.7265H47.7291H47.7318H47.7344H47.7371H47.7397H47.7423H47.745H47.7476H47.7503H47.7529H47.7555H47.7582H47.7608H47.7635H47.7661H47.7687H47.7714H47.774H47.7766H47.7793H47.7819H47.7845H47.7871H47.7898H47.7924H47.795H47.7977H47.8003H47.8029H47.8055H47.8082H47.8108H47.8134H47.816H47.8187H47.8213H47.8239H47.8265H47.8291H47.8318H47.8344H47.837H47.8396H47.8422H47.8449H47.8475H47.8501H47.8527H47.8553H47.8579H47.8605H47.8632H47.8658H47.8684H47.871H47.8736H47.8762H47.8788H47.8814H47.884H47.8866H47.8893H47.8919H47.8945H47.8971H47.8997H47.9023H47.9049H47.9075H47.9101H47.9127H47.9153H47.9179H47.9205H47.9231H47.9257H47.9283H47.9309H47.9335H47.9361H47.9387H47.9413H47.9439H47.9465H47.9491H47.9517H47.9543H47.9569H47.9594H47.962H47.9646H47.9672H47.9698H47.9724H47.975H47.9776H47.9802H47.9828H47.9854H47.9879H47.9905H47.9931H47.9957H47.9983H48.0009H48.0035H48.0061H48.0086H48.0112H48.0138H48.0164H48.019H48.0216H48.0241H48.0267H48.0293H48.0319H48.0345H48.037H48.0396H48.0422H48.0448H48.0474H48.0499H48.0525H48.0551H48.0577H48.0602H48.0628H48.0654H48.068H48.0705H48.0731H48.0757H48.0783H48.0808H48.0834H48.086H48.0886H48.0911H48.0937H48.0963H48.0989H48.1014H48.104H48.1066H48.1091H48.1117H48.1143H48.1168H48.1194H48.122H48.1245H48.1271H48.1297H48.1322H48.1348H48.1374H48.1399H48.1425H48.1451H48.1476H48.1502H48.1528H48.1553H48.1579H48.1605H48.163H48.1656H48.1681H48.1707H48.1733H48.1758H48.1784H48.181H48.1835H48.1861H48.1886H48.1912H48.1938H48.1963H48.1989H48.2014H48.204H48.2066H48.2091H48.2117H48.2142H48.2168H48.2193H48.2219H48.2244H48.227H48.2296H48.2321H48.2347H48.2372H48.2398H48.2423H48.2449H48.2475H48.25H48.2526H48.2551H48.2577H48.2602H48.2628H48.2653H48.2679H48.2704H48.273H48.2755H48.2781H48.2806H48.2832H48.2857H48.2883H48.2908H48.2934H48.2959H48.2985H48.301H48.3036H48.3061H48.3087H48.3112H48.3138H48.3163H48.3189H48.3214H48.324H48.3265H48.3291H48.3316H48.3342H48.3367H48.3393H48.3418H48.3444H48.3469H48.3495H48.352H48.3546H48.3571H48.3597H48.3622H48.3648H48.3673H48.3699H48.3724H48.375H48.3775H48.38H48.3826H48.3851H48.3877H48.3902H48.3928H48.3953H48.3979H48.4004H48.403H48.4055H48.408H48.4106H48.4131H48.4157H48.4182H48.4208H48.4233H48.4259H48.4284H48.431H48.4335H48.436H48.4386H48.4411H48.4437H48.4462H48.4488H48.4513H48.4539H48.4564H48.4589H48.4615H48.464H48.4666H48.4691H48.4717H48.4742H48.4768H48.4793H48.4818H48.4844C51.2511 143 54.0189 143.007 56.7874 143.013C63.7955 143.03 70.8079 143.046 77.8172 142.957C79.3879 142.937 80.8653 143.832 81.7309 145.15C82.5903 146.459 82.817 148.139 81.9573 149.686C81.1286 151.178 80.1447 152.571 79.1435 153.989C78.7616 154.529 78.3771 155.074 77.9978 155.629C74.6723 160.492 71.3452 165.353 67.9999 170.201C65.7181 173.508 63.4273 176.808 61.136 180.109C59.8 182.033 58.4639 183.958 57.1293 185.884C55.1217 188.782 53.1159 191.68 51.1101 194.578C48.736 198.008 46.362 201.438 43.9854 204.867C43.3214 205.825 42.6595 206.784 41.9978 207.743C39.7814 210.953 37.5683 214.158 35.2908 217.319C35.0056 217.715 34.6244 218.061 34.188 218.426C34.1071 218.493 34.0237 218.562 33.9389 218.632C33.6314 218.886 33.3044 219.156 33.0055 219.447C31.7608 219.497 30.4468 219.5 29.0297 219.5C28.9943 219.453 28.9572 219.398 28.9124 219.331L28.9011 219.314C28.8247 219.2 28.6948 219.005 28.497 218.874C26.8284 217.767 25.9651 215.768 26.4535 213.611C26.6622 212.689 26.7543 211.751 26.8192 210.831C26.8395 210.542 26.8571 210.258 26.8746 209.976C26.9135 209.345 26.9517 208.726 27.0182 208.107C27.1676 206.712 27.3287 205.319 27.4901 203.923L27.4978 203.856C27.6567 202.483 27.8157 201.108 27.964 199.731C28.0602 198.838 28.1401 197.944 28.2194 197.055L28.2222 197.024C28.3006 196.144 28.3786 195.27 28.4717 194.397C28.6223 192.988 28.7828 191.58 28.9436 190.17L28.9457 190.151C29.1071 188.736 29.2688 187.318 29.4202 185.898C29.5153 185.007 29.5946 184.114 29.6734 183.226L29.674 183.22C29.7531 182.329 29.8318 181.444 29.9261 180.56C30.0769 179.148 30.2379 177.737 30.399 176.323L30.3996 176.318C30.5609 174.903 30.7224 173.487 30.8738 172.069C30.9577 171.282 31.0132 170.487 31.0715 169.653C31.0987 169.262 31.1266 168.863 31.1582 168.453L31.1997 167.914H30.6597L29.9634 167.914H29.3121C27.1372 167.914 24.9624 167.915 22.7876 167.915C16.928 167.917 11.069 167.918 5.20977 167.909C3.30487 167.905 1.82018 167.205 1.05656 165.514C0.279814 163.794 0.264001 162.085 1.3406 160.47C14.2481 141.119 27.1537 121.766 40.0552 102.411C40.2597 102.104 40.4464 101.789 40.6252 101.484C40.6494 101.443 40.6734 101.402 40.6973 101.361C40.8521 101.096 41.0018 100.84 41.1602 100.589Z" fill="url(#paint0_linear_17_32)" stroke="#404040"/>
<defs>
<linearGradient id="paint0_linear_17_32" x1="41.5" y1="96" x2="41.5" y2="220" gradientUnits="userSpaceOnUse">
<stop stop-color="#FFC107"/>
<stop offset="1" stop-color="white"/>
</linearGradient>
</defs>
</svg>
